Coordinates
version=1
nRows=13
nColumns=27
inDegrees=yes

Units are S.I. units (second, meters, Newtons, ...)
If the header above contains a line with 'inDegrees', this indicates whether rotational values are in degrees (yes) or radians (no).

endheader
time	pelvis_rotation	pelvis_tilt	pelvis_list	pelvis_tx	pelvis_ty	pelvis_tz	hip_flexion_r	hip_adduction_r	hip_rotation_r	knee_angle_r	knee_rotation_r	knee_adduction_r	knee_angle_r_beta	ankle_angle_r	subtalar_angle_r	mtp_angle_r	hip_flexion_l	hip_adduction_l	hip_rotation_l	knee_angle_l	knee_rotation_l	knee_adduction_l	knee_angle_l_beta	ankle_angle_l	subtalar_angle_l	mtp_angle_l
      3.60000000	      2.51672731	    -18.72571279	     -3.57038467	      0.05805026	      0.83025070	     -1.14720158	     27.38111561	    -23.06990720	    -35.96704896	     17.72361897	      0.11842484	     -3.18704118	      0.30933551	     -4.35721246	     17.41691334	      0.00000000	     34.15645032	    -27.99883665	    -16.51751091	     16.39956230	     -0.55880174	      7.72314865	      0.28622636	     -7.63037930	     21.07554624	      0.00000000
      3.60500000	      2.10100269	    -18.87545337	     -3.28686463	      0.05693617	      0.82991002	     -1.14733360	     28.26931008	    -23.42387841	    -35.25207378	     18.38280244	      0.00090651	     -3.03284384	      0.32084043	     -4.14933603	     17.33575335	      0.00000000	     34.12092152	    -27.90331706	    -17.16091754	     16.45560865	     -0.49498804	      7.59444156	      0.28720455	     -7.73516725	     20.91658253	      0.00000000
      3.61000000	      2.51494593	    -19.58901439	     -3.25415882	      0.05524520	      0.82946455	     -1.14744197	     29.12902187	    -23.76084281	    -35.57996393	     18.94039113	      0.03843768	     -2.90856075	      0.33057219	     -4.02329667	     17.23138184	      0.00000000	     35.52966261	    -27.72985094	    -16.27641296	     16.97271632	     -0.56792766	      7.64428488	      0.29622978	     -7.59795546	     20.79580562	      0.00000000
      3.61500000	      1.24462366	    -20.15176987	     -2.66898233	      0.05266179	      0.82886673	     -1.14793911	     31.38465769	    -24.24933795	    -33.00799410	     20.04385048	     -0.12635440	     -3.12590237	      0.34983119	     -3.72285944	     16.87026186	      0.00000000	     35.52733804	    -27.60409989	    -18.13769737	     17.15416427	     -0.46200445	      6.93425130	      0.29939665	     -7.51051322	     20.03725130	      0.00000000
      3.62000000	      1.34572150	    -20.61211528	     -2.38045181	      0.05130083	      0.82831117	     -1.14816014	     32.34393565	    -24.78248363	    -32.97034818	     20.79610449	     -0.17774958	     -2.87926409	      0.36296049	     -3.47318792	     16.91853846	      0.00000000	     36.28243115	    -27.34167415	    -18.10226338	     17.49907552	     -0.51832766	      6.81790682	      0.30541648	     -7.41326131	     20.04337909	      0.00000000
      3.62500000	      2.47209436	    -21.08628896	     -2.58082705	      0.05029264	      0.82797507	     -1.14794621	     32.27639206	    -25.03477403	    -34.68555296	     21.06016891	     -0.12496904	     -2.48030564	      0.36756929	     -3.45257533	     16.95322546	      0.00000000	     37.78753653	    -27.17978865	    -16.01918463	     17.89814156	     -0.54722056	      7.49242846	      0.31238150	     -7.52132734	     20.26620526	      0.00000000
      3.63000000	      1.22556373	    -21.65926895	     -1.63422536	      0.04767940	      0.82712611	     -1.14877782	     34.78692356	    -25.90251600	    -31.86143324	     22.40101801	     -0.21236123	     -2.69093982	      0.39097152	     -3.06626907	     16.71896922	      0.00000000	     37.67697359	    -26.74099861	    -18.25814739	     18.06149347	     -0.54155014	      6.69161108	      0.31523253	     -7.39080936	     19.63618917	      0.00000000
      3.63500000	      2.40797874	    -22.25957220	     -2.04567482	      0.04643902	      0.82669161	     -1.14834620	     34.75344792	    -25.98492011	    -33.77078137	     22.63490736	     -0.20344672	     -2.28380820	      0.39505366	     -3.05650182	     16.73358372	      0.00000000	     39.53632166	    -26.79228396	    -15.92827176	     18.65644320	     -0.53288479	      7.38531340	      0.32561636	     -7.43350661	     19.96306618	      0.00000000
      3.64000000	      2.33152156	    -22.92941301	     -1.72095054	      0.04425062	      0.82593153	     -1.14857990	     36.20092339	    -26.50743622	    -33.13331190	     23.50679404	     -0.24579368	     -2.22263249	      0.41027095	     -2.84789081	     16.61917428	      0.00000000	     40.48929694	    -26.57285229	    -15.95370304	     19.07379972	     -0.53256773	      7.33581394	      0.33290061	     -7.38361199	     19.80940484	      0.00000000
      3.64500000	      1.56972728	    -23.43930576	     -0.49869535	      0.04181658	      0.82497169	     -1.14957214	     38.52983316	    -27.72947926	    -30.76088475	     24.90814139	     -0.29092937	     -2.45012973	      0.43472908	     -2.47126916	     16.76637024	      0.00000000	     40.37433083	    -25.74450175	    -17.66284733	     19.06659143	     -0.61525976	      7.11685296	      0.33277480	     -7.48637117	     19.54549002	      0.00000000
      3.65000000	      1.52541508	    -24.20356230	     -0.62309529	      0.03952367	      0.82411140	     -1.14939199	     39.81345188	    -27.75243348	    -30.29099558	     25.53063899	     -0.21483636	     -2.31741213	      0.44559371	     -2.35276643	     16.19975327	      0.00000000	     41.78400709	    -26.04220540	    -17.49369797	     19.85500770	     -0.48833157	      6.54302681	      0.34653526	     -7.14380547	     19.11384798	      0.00000000
      3.65500000	      0.95668960	    -24.90487798	      0.20222032	      0.03685070	      0.82310199	     -1.14985262	     42.09159709	    -28.50211207	    -28.38033332	     26.73142598	     -0.33904396	     -2.59970272	      0.46655140	     -2.09897371	     16.44982837	      0.00000000	     42.20725944	    -25.59611357	    -18.40270817	     20.02601346	     -0.50658171	      6.92970308	      0.34951987	     -7.35503655	     19.31275730	      0.00000000
      3.66000000	      0.86567236	    -25.61272662	      0.45506297	      0.03451831	      0.82201421	     -1.14999186	     43.63633933	    -28.88515982	    -27.52707245	     27.60124625	     -0.23707935	     -2.49478813	      0.48173262	     -1.92537670	     16.02902616	      0.00000000	     43.33322081	    -25.58097973	    -18.64160100	     20.70021458	     -0.42470870	      6.31355230	      0.36128690	     -7.02862348	     18.82870572	      0.00000000
